<?xml version="1.0" encoding="UTF-8"?>
<svg id="Layer_1" data-name="Layer 1" xmlns="http://www.w3.org/2000/svg" viewBox="0 0 465.28 848.24">
  <defs>
    <style>
      .cls-1 {
        fill: #e7e62d;
        stroke: #a4ac6d;
        stroke-miterlimit: 10;
        stroke-width: 2px;
        color: white;
      }
    </style>
  </defs>
  <path class="cls-1" d="M103.1,118.05c0,29.08-15.33,52.39-23.24,62.25-8.41,10.57-23.98,25.48-41.04,25.48-20.52,0-30.9-22.35-30.9-43.98,0-30.52,12.61-60.33,30.9-73.54,3.71-1.68,7.42-2.64,11.12-2.88-14.83,13.22-26.21,33.65-26.21,61.29,0,37.01,18.54,44.94,27.69,44.94s18.79-5.77,24.97-14.9c6.43-9.37,12.11-29.56,12.11-43.26,0-20.43-6.68-43.02-27.69-43.02-2.72,0-6.43,.48-8.41,.96,5.93-6.97,14.59-12.02,23.73-13.7,11.62,0,26.95,8.89,26.95,40.38Z"/>
  <path class="cls-1" d="M147.11,74.78c3.21,24.27,19.78,63.69,28.43,86.28,9.64-16.58,23.98-41.82,32.63-59.84,2.97-5.77,4.7-11.3,4.94-15.14,4.94-4.81,12.86-11.3,19.53-11.3-.74,17.3-.99,25.96-.99,38.45,0,37.73,1.24,46.15,3.46,57.68,1.48,7.69,4.7,14.42,8.9,18.75-4.45,7.93-11.87,14.18-17.8,14.18-7.17-12.5-10.88-38.69-10.88-60.57,0-15.62,0-31,.25-41.34-18.54,31-32.14,55.28-36.09,76.91-3.21,5.05-7.66,8.41-12.86,12.26-4.7-20.67-23.49-62.97-30.16-84.36-5.93,22.35-8.65,47.35-8.65,70.66,0,5.77,1.24,11.78,2.23,17.3-3.71,4.81-11.37,10.33-15.08,10.33-.49-4.81-.74-7.21-.74-10.57,0-29.32,17.55-81.72,17.06-108.63,5.69-5.53,12.11-10.82,15.82-11.06Z"/>
  <path class="cls-1" d="M321.15,70.7c1.98,24.51,7.42,50.23,12.36,70.42,4.2,17.54,11.87,39.66,20.77,49.03-3.71,7.69-12.36,13.46-16.81,13.46-5.69-9.37-14.83-33.41-20.03-57.44-1.73,1.68-5.69,3.85-10.88,6.25-3.96,1.92-17.31,4.33-27.19,5.29-3.21,13.22-5.19,27.16-3.96,37.49-2.47,3.85-11.87,10.09-17.55,10.09,0-11.3,8.16-34.85,12.61-46.87-3.96,.48-9.89,.72-13.6,.72,0-1.68,5.19-7.93,7.91-9.61,3.21-.72,6.18-.48,9.39-.96,9.15-22.83,23.98-53.6,28.43-61.53,1.48-2.88,2.47-4.81,3.21-8.65,3.96-3.6,13.35-7.69,15.33-7.69Zm-39.06,77.63c16.81-.72,28.68-2.4,34.61-4.09-3.21-15.62-6.43-31.97-9.39-51.19-11.12,18.51-18.79,36.29-25.22,55.28Z"/>
  <path class="cls-1" d="M362.68,94.49c.49-4.33,6.92-10.82,10.14-12.98,13.6-3.36,33.13-4.57,43.76-4.57,19.53,0,38.81,3.85,38.57,20.91-.25,19.23-17.55,32.69-37.33,43.98,11.87,20.19,20.27,29.08,27.19,36.77,7.42,7.93,14.34,13.22,19.28,14.9-3.46,6.73-11.12,11.06-16.32,11.06-10.38,0-35.6-35.57-48.21-58.4,3.46-3.61,10.63-7.93,13.6-8.65,2.47-.24,8.41-3.12,11.12-5.29,8.65-7.21,12.36-14.9,12.36-24.03,.25-13.46-12.86-18.03-33.87-18.03-9.89,0-26.7,1.68-40.3,4.33Zm27.19,56.72c-.25,13.94,1.48,36.77,6.68,44.7-1.24,5.29-11.37,10.33-18.79,10.33-2.47-10.82-3.46-22.59-3.21-40.62,.49-17.06,2.23-44.94,4.7-58.64,3.46-5.29,11.37-10.82,15.08-12.74-2.97,20.43-4.2,43.26-4.45,56.96Z"/>
</svg>