<?xml version="1.0" encoding="utf-8"?>
<!-- Generator: Adobe Illustrator 26.4.1, SVG Export Plug-In . SVG Version: 6.00 Build 0)  -->
<svg version="1.1" id="Layer_1" xmlns="http://www.w3.org/2000/svg" xmlns:xlink="http://www.w3.org/1999/xlink" x="0px" y="0px"
	 viewBox="0 0 65.8 75" style="enable-background:new 0 0 65.8 75;" xml:space="preserve">
<style type="text/css">
	.st0{fill:none;stroke:#79C143;stroke-width:0.25;stroke-miterlimit:10;}
	.st1{fill:none;stroke:#3B54A5;stroke-width:0.25;stroke-miterlimit:10;}
	.st2{fill:none;stroke:#5ABA47;stroke-width:0.25;stroke-miterlimit:10;}
	.st3{fill:none;stroke:#5BBA48;stroke-width:0.25;stroke-miterlimit:10;}
	.st4{fill:none;stroke:#5BBA49;stroke-width:0.25;stroke-miterlimit:10;}
</style>
<path class="st0" d="M49.1,24.2L49.1,24.2L49.1,24.2c0.2,0.1,0.3,0.2,0.3,0.3c0,0.1-0.1,0.2-0.2,0.4S49,25.2,49,25.3
	c0,0.4-0.1,0.8-0.2,1c-0.1,0.2-0.2,0.5-0.3,0.9s-0.2,0.6-0.2,0.7c0,0,0,0.1-0.1,0.2s-0.1,0.2-0.1,0.2c0.1,0.3,0.1,0.5,0.1,0.6V29
	c0,0.1-0.1,0.3-0.3,0.4s-0.3,0.3-0.3,0.3c-0.1,0.1-0.1,0.2-0.2,0.3c0,0,0,0.1,0,0.2v0.1c0,0,0,0.1,0,0.2s0,0.2,0,0.2
	c0,0.1-0.1,0.4-0.2,0.7S47,32,46.9,32c0,0,0,0.1-0.1,0.2s-0.1,0.2-0.1,0.2s-0.1,0.1-0.2,0.1c0,0.4,0,0.6-0.1,0.8
	c0,0.1-0.1,0.2-0.3,0.3s-0.2,0.2-0.3,0.3c-0.1,0.2-0.4,0.4-0.7,0.6c-0.4,0.4-0.6,0.6-0.8,0.7c0,0-0.1,0.1-0.2,0.2S44,35.6,44,35.7
	c-0.1,0.1-0.2,0.2-0.3,0.3s-0.2,0.3-0.3,0.3s-0.1,0.1-0.2,0.2S43,36.6,43,36.6s-0.1,0.1-0.1,0.2S42.8,37,42.6,37
	c-0.1,0-0.2,0.1-0.5,0.3s-0.4,0.2-0.5,0.3s-0.2,0.1-0.3,0.2c-0.1,0-0.2,0.1-0.2,0.3S41,38.3,41,38.4c-0.1,0.2-0.2,0.3-0.4,0.3
	c-0.1,0-0.2,0-0.2,0h-0.1c-0.1,0-0.1,0-0.2,0.1s-0.2,0.1-0.2,0.2s-0.1,0.2-0.2,0.2c-0.6,0.5-1,0.7-1.3,0.7l-0.3-0.1
	c-0.1,0-0.2,0-0.2,0.1C37.8,40,37.7,40,37.6,40h-0.1c-0.1,0-0.3-0.1-0.4-0.3l0,0c0,0-0.1,0-0.2,0s-0.1,0-0.2,0
	c-0.1,0-0.3,0.1-0.5,0.2s-0.4,0.3-0.4,0.4c-0.1,0.2-0.2,0.3-0.3,0.3h-0.1c-0.1,0-0.2-0.1-0.2-0.1l-0.1-0.1H35c0,0-0.1,0-0.2,0.1
	c-0.1,0.1-0.2,0.1-0.3,0.1s-0.2,0-0.3,0s-0.2,0-0.3,0h-0.2c-0.1,0-0.2,0.1-0.3,0.1s-0.2,0.1-0.3,0.1s-0.2,0-0.2,0
	c-0.1,0.1-0.3,0.1-0.5,0.1c-0.1,0-0.2,0-0.3,0.1s-0.3,0-0.4,0c0,0,0,0-0.1,0s-0.1,0-0.1,0c-0.1,0-0.1,0-0.2,0s-0.1,0-0.2-0.1H31
	h-0.5c-0.3,0-0.5,0-0.6-0.1c0,0-0.1,0-0.3-0.1c0,0-0.1,0-0.2,0s-0.2,0-0.2,0s-0.1,0-0.2,0s-0.2,0-0.2,0c-0.1,0-0.1,0-0.2,0
	c-0.6,0.1-0.9,0.1-1,0.2h-0.1c-0.1,0-0.2-0.1-0.3-0.2s-0.2-0.2-0.3-0.2c-0.1,0-0.3-0.1-0.6-0.1s-0.5-0.1-0.6-0.1h-0.2
	c-0.3,0.1-0.5,0.1-0.5,0.1s-0.2,0-0.5-0.1c-0.4-0.1-0.6-0.1-0.7-0.1s-0.4-0.1-0.7-0.2s-0.5-0.2-0.6-0.2c-0.4-0.1-0.9-0.3-1.4-0.6
	c-0.5,0-1-0.1-1.3-0.3c-0.2,0-0.4-0.2-0.8-0.4s-0.5-0.4-0.6-0.5c-0.3,0.1-0.4,0.2-0.6,0.2c-0.1,0-0.1,0-0.1-0.1s0-0.2,0-0.2v-0.1
	c0-0.1-0.1-0.1-0.3-0.2c-0.6-0.3-1.2-0.9-1.9-1.8c-0.7-0.6-1.1-1-1.2-1.3c-0.2-0.1-0.4-0.3-0.6-0.5s-0.3-0.4-0.4-0.5
	c-0.2-0.2-0.5-0.8-0.8-1.8c-0.5-0.7-0.7-1.2-0.7-1.5c-0.6-1-0.9-1.9-0.9-2.6c-0.4-0.8-0.7-1.6-0.7-2.3V25c0-2.1,0-3.2,0-3.3
	c-0.2,0-0.3-0.1-0.3-0.2s0.1-0.3,0.3-0.5c0.1-0.1,0.1-0.2,0.2-0.4c0-0.1,0-0.2,0-0.4c0-0.4,0.1-0.8,0.2-1.2c0,0,0-0.1,0.1-0.3
	s0.1-0.3,0.1-0.3c0-0.1,0.1-0.2,0.1-0.5s0.1-0.4,0.1-0.5c0,0,0-0.1,0-0.3c0-0.3,0-0.7,0.1-1c0-0.2,0.1-0.5,0.2-0.9
	c0-0.1,0.1-0.2,0.1-0.4s0-0.3,0.1-0.4c0.1-0.4,0.5-0.8,1.1-1.3c0.2-0.4,0.4-0.8,0.4-1c0-0.1,0.1-0.2,0.1-0.3s0.1-0.2,0.1-0.3
	c0.1-0.1,0.2-0.3,0.4-0.4l0.1-0.1c0.4-0.5,0.7-0.7,0.7-0.6c0,0,0,0,0-0.1s0-0.1,0-0.1c0-0.3,0.2-0.6,0.7-0.9C15.4,9,15.7,8.8,16,8.6
	c0,0,0.1-0.1,0.2-0.1s0.2-0.1,0.2-0.1c0-0.2,0-0.3,0.1-0.4s0.2-0.2,0.3-0.2s0.3-0.1,0.3-0.1c0.1-0.1,0.2-0.2,0.4-0.3S18,7.1,18.1,7
	c0-0.1,0.2-0.3,0.5-0.5C19.3,6.2,19.7,6,19.9,6c0,0,0.1-0.1,0.3-0.1s0.2,0,0.3-0.1c0.1,0,0.2-0.1,0.3-0.2s0.3-0.1,0.3-0.2
	c0.1,0,0.2-0.2,0.4-0.4s0.3-0.3,0.5-0.3c0.1,0,0.2,0,0.2,0h0.1h0.1h0.1c0.1,0,0.1,0,0.2,0c0,0,0.1-0.1,0.2-0.1s0.1,0,0.1,0
	c0-0.1,0.2-0.2,0.4-0.3s0.4-0.2,0.6-0.2h0.1c0.1,0,0.1,0.1,0.2,0.1s0.1,0.1,0.1,0.1l0.2-0.1c0,0,0.2-0.1,0.5-0.2c0,0,0,0,0.1,0
	s0.1,0,0.1,0c0.1,0,0.2,0,0.2,0.1C25.6,4,25.7,4,25.7,4h0.1h0.1c0,0,0.1,0,0.3-0.1s0.2-0.1,0.2-0.1c0.1,0,0.2,0,0.3,0s0.2,0,0.2,0
	c0.2,0,0.4,0,0.7-0.1s0.5-0.1,0.6-0.1c0,0,0.1,0,0.2,0s0.1,0,0.1,0l0,0c0.1-0.1,0.2-0.1,0.3-0.1h0.1c0.3,0.1,0.5,0.1,0.7,0.1
	c0.1,0,0.2,0,0.5,0s0.4,0,0.5,0c0.4,0,0.6,0,0.8,0c0.1,0,0.2,0,0.4,0c0.2,0,0.4,0,0.6,0c0.1,0,0.2,0,0.3,0c0.4,0,0.7,0.1,0.9,0.4
	c0,0.1,0.1,0.2,0.2,0.2c0,0,0.1,0,0.3-0.1S34.3,4,34.4,4c0.5,0,0.7,0,0.7,0c0.1,0,0.2,0,0.2,0.1c0.1,0.1,0.1,0.2,0.1,0.3
	c0,0.1,0,0.2,0,0.2h-0.1l0.6,0.2c0,0-0.1,0-0.2-0.1c0,0,0.2-0.1,0.6-0.3h0.1c0.1,0,0.2,0.1,0.2,0.3c0,0.1,0,0.2,0,0.2s0.2,0,0.4,0.1
	s0.3,0.1,0.4,0.1s0.2,0.1,0.4,0.1s0.3,0.1,0.4,0.1s0.2,0.1,0.4,0.2s0.2,0.2,0.3,0.3c0.2,0,0.4,0.1,0.7,0.3s0.5,0.3,0.6,0.4
	c0,0,0.2,0.1,0.4,0.2c0,0,0.1,0,0.2-0.1S41,6.5,41,6.5c0.1,0,0.2,0,0.2,0s0.1,0.1,0.1,0.2s0,0.2,0,0.3c0.8,0.4,1.5,0.8,2,1.5
	c0.3,0.2,0.6,0.4,0.8,0.8c0.1,0.1,0.1,0.1,0.2,0.1c0,0,0.1,0,0.4-0.1c0.1,0-0.1,0.4,0.1,0.4s0.4,0.3,0.4,0.4c0,0-0.4-0.5-0.4-0.4
	c0,0.1,0.5,0.2,0.4,0.4l-0.1,0.2l0,0c0,0,0,0,0,0.1s0.1,0.1,0.1,0.1c0,0.1,0.1,0.2,0.3,0.3s0.2,0.2,0.3,0.3c0,0.1,0.1,0.2,0.3,0.5
	s0.3,0.5,0.4,0.7c0.1,0.1,0.2,0.5,0.5,1c0.1,0.1,0.2,0.2,0.2,0.2s0.1,0,0.1-0.1s0.1-0.1,0.2-0.1h0.1c0.1,0,0.1,0.1,0.1,0.2
	s0,0.1,0.1,0.1c0.2,0.1,0.3,0.1,0.3,0.2c0,0,0,0.1,0,0.2c0,0.1-0.1,0.3-0.3,0.5h0.1c0.2,0,0.3,0.1,0.3,0.2c0,0.1,0,0.2-0.1,0.2
	s-0.2,0.1-0.2,0.2c0,0,0,0.1,0.1,0.3c0.2,0.4,0.3,0.7,0.3,1c0,0,0.1-0.1,0.2-0.1c0.1,0,0.2,0.1,0.2,0.2v0.1c0,0.1-0.1,0.1-0.2,0.2
	S48.3,17,48.3,17v0.6v0.3c0.1,0.4,0.2,0.7,0.2,1c0.1,0.2,0.2,0.5,0.2,1V20c0,0.1,0,0.1,0,0.2V21v0.2c0,0,0,0.1,0,0.3
	c0,0.1,0,0.3,0,0.3v0.1V22c0,0,0.1,0,0.2,0c0.2,0,0.3,0.1,0.3,0.3c0,0.3-0.1,0.6-0.4,0.8c0.1,0.2,0.1,0.4,0.1,0.5
	C49.2,23.8,49.2,23.9,49.1,24.2z M20.2,28.3L20.2,28.3L20.2,28.3z M21.2,27.9c0,0,0.1,0.1,0.2,0.1s0.2,0.1,0.2,0.1v0.1
	c0,0.1-0.1,0.3-0.2,0.4l0.1,0.3c0.1,0.2,0.3,0.5,0.4,0.8c0.1,0.2,0.3,0.6,0.4,1.1s0.3,0.9,0.4,1.1c0.4-0.2,0.6-0.4,0.7-0.4
	s0.1,0,0.2,0s0.1,0,0.1,0.1c0,0.2-0.1,0.3-0.2,0.5c0,0-0.1,0.1-0.2,0.1s-0.1,0.1-0.1,0.1v0.1l0.2,0.3l0.2,0.2
	c0.3,0.2,0.4,0.3,0.6,0.5c0.2-0.2,0.4-0.2,0.6-0.2l0,0c0.1,0,0.2,0.2,0.2,0.3v0.1c0,0.1-0.1,0.1-0.1,0.2l0,0l0.1,0.1
	c0.2,0,0.4,0.2,0.8,0.5c0.1,0,0.3,0.1,0.7,0.3s0.7,0.2,1,0.2s0.5,0,0.7,0.1c0.1,0,0.2,0,0.4,0H29c0.3,0.1,0.4,0.1,0.5,0.1
	c0.2-0.1,0.3-0.2,0.5-0.2h0.1c0.1,0,0.2,0,0.4,0.1c0.2-0.1,0.3-0.1,0.4-0.1s0.3,0,0.6-0.1s0.5-0.1,0.7-0.1c0.3,0,0.4,0.1,0.6,0.3
	c0,0,0.1-0.2,0.3-0.3s0.3-0.3,0.4-0.4s0.2-0.2,0.4-0.2c0.4-0.2,0.7-0.4,0.8-0.6c0.1-0.2,0.3-0.4,0.5-0.6c0-0.1,0-0.2,0.1-0.3
	c0-0.1,0.2-0.2,0.5-0.3s0.4-0.3,0.4-0.4s0.1-0.3,0.3-0.4c0-0.1,0-0.2,0.1-0.4s0.2-0.2,0.2-0.3c0-0.1,0.1-0.3,0.2-0.4
	s0.2-0.3,0.2-0.4c0.5-1.6,1-3.3,1.3-5c0,0-0.1,0-0.1,0.1s-0.2,0.1-0.2,0.1s-0.1,0.1-0.2,0.1c-0.1,0-0.2,0-0.2-0.1c0,0,0-0.1,0-0.2
	s0.1-0.3,0.2-0.5c0.1-0.1,0.2-0.2,0.4-0.3s0.3-0.2,0.4-0.3s0.1-0.3,0.1-0.4c-0.3,0.1-0.4,0.2-0.5,0.2s-0.1,0-0.2-0.1v-0.1v-0.1
	l0.1-0.1l0.1-0.1c0.2-0.1,0.4-0.2,0.4-0.3c0,0-0.1-0.1-0.2-0.2s-0.2-0.2-0.2-0.4v-0.1c0,0,0.1-0.2,0.1-0.3s0.1-0.3,0.1-0.4
	c0,0,0-0.1,0-0.2s0-0.1,0-0.2c-0.1-0.3-0.1-0.5-0.1-0.9c0-0.2,0-0.3,0-0.3c0-0.1-0.1-0.3-0.1-0.7s0-0.5,0-0.5
	c-0.1-0.5-0.1-0.8-0.1-0.9c-0.2-0.4-0.3-1-0.4-1.7c-0.1,0.1-0.2,0.1-0.4,0.1s-0.3-0.1-0.3-0.2l0.1-0.2c0.2-0.3,0.3-0.4,0.3-0.5
	s0,0,0-0.1v-0.1c0,0,0,0,0-0.1l-0.2-0.4c-0.1-0.1-0.1-0.1-0.1-0.1s-0.1,0-0.3,0.1s-0.3,0.1-0.3,0.1c-0.1,0-0.1,0-0.2-0.1v-0.1
	c0-0.1,0.1-0.2,0.3-0.3s0.3-0.2,0.3-0.3v-0.1c-0.1-0.2-0.2-0.4-0.3-0.5c-0.3-0.3-0.5-0.7-0.7-1c-0.1-0.3-0.4-0.6-0.8-1
	s-0.7-0.6-0.9-0.7c-0.1,0-0.3-0.1-0.7-0.3s-0.8-0.3-1-0.3c-0.4,0-0.8-0.1-1.2-0.2c-0.1-0.1-0.4-0.1-0.7-0.2s-0.6-0.2-0.7-0.2
	s-0.3,0.1-0.5,0.1s-0.3,0.1-0.4,0.2c-0.1,0-0.2,0-0.4,0c-0.3,0-0.5,0-0.5-0.1c-0.3,0-0.7,0.1-1,0.5c-0.3,0.3-0.8,0.5-1.3,0.6
	c-0.7,0.2-1,0.3-1,0.3c0,0.1,0,0.1,0,0.2c0,0.2-0.2,0.5-0.5,0.8c0,0-0.2,0.1-0.4,0.2c0,0-0.1,0.1-0.2,0.2s-0.2,0.1-0.2,0.2
	c-0.4,0.3-0.6,0.5-0.8,0.7c0,0.1-0.1,0.3-0.2,0.4s-0.2,0.2-0.2,0.3s-0.1,0.3-0.2,0.5s-0.2,0.4-0.2,0.5c0,0-0.1,0.1-0.2,0.3
	s-0.2,0.4-0.2,0.5c0,0.4,0,0.7-0.1,0.9c-0.1,0.8-0.2,1.3-0.2,1.3c-0.1,0.3-0.2,0.6-0.2,1.1S21.1,20,21,20.2s-0.1,0.6-0.1,1v0.5
	C21,21.8,21,22,21,22.2c0,0.1,0,0.2,0,0.4s0,0.3,0,0.4v0.2h0.1c0.1,0,0.2,0,0.3,0.1s0.2,0.1,0.2,0.2c0,0,0,0.1-0.1,0.1
	C21.2,23.7,21,23.9,21,24v0.1c0.1,0,0.1,0,0.2,0s0.2,0.1,0.2,0.2c0,0,0,0.1-0.1,0.3s-0.1,0.2-0.1,0.3l0,0c0,0.1,0,0.1,0,0.2
	s0,0.2-0.1,0.3S21,25.6,21,25.7v0.1c0.2-0.2,0.4-0.2,0.6-0.2l0,0c0.1,0,0.2,0.1,0.2,0.1c0,0.1-0.1,0.2-0.2,0.4s-0.2,0.2-0.3,0.3
	c0.3,0,0.4,0.1,0.4,0.2c0,0.2-0.1,0.4-0.3,0.6c-0.1,0.1-0.1,0.2-0.1,0.3C21.1,27.7,21.1,27.8,21.2,27.9z M25,39.2L25,39.2L25,39.2
	L25,39.2z M49,22.5L49,22.5L49,22.5L49,22.5L49,22.5z M47.7,14.3L47.7,14.3L47.7,14.3L47.7,14.3C47.6,14.4,47.6,14.4,47.7,14.3
	C47.6,14.4,47.7,14.3,47.7,14.3z M34.9,4.6L34.9,4.6C34.9,4.5,34.8,4.5,34.9,4.6C34.9,4.6,34.9,4.6,34.9,4.6z"/>
<path class="st1" d="M4.8,56.3c0-0.5,0-1.2,0.1-2s0.2-1.6,0.3-2.4s0.4-1.7,0.6-2.5s0.6-1.5,1-2.2s0.9-1.1,1.5-1.5
	c0.5-0.3,1-0.5,1.7-0.5c0.1,0,0.3,0,0.4,0c1.6,0.1,2.8,0.5,3.7,1.1s1.5,1.3,1.9,2.2c0.4,0.9,0.6,1.9,0.7,3s0.1,2.3,0.1,3.6
	c0,1-0.1,2.1-0.3,3.3s-0.5,2.3-1,3.3s-1.1,1.9-2,2.6c-0.8,0.7-1.9,1-3.2,1c-0.8,0-1.5-0.1-2.1-0.4s-1.1-0.7-1.5-1.1
	c-0.4-0.5-0.7-1-1-1.7s-0.5-1.3-0.6-2S5,58.9,4.9,58.2S4.8,56.9,4.8,56.3z M7.6,55.7c0,0.4,0,0.9,0,1.4s0,1.2,0.1,1.8
	s0.2,1.3,0.3,1.9s0.3,1.2,0.5,1.7s0.5,0.9,0.8,1.3c0.3,0.3,0.7,0.5,1.2,0.5h0.1c0.4,0,0.8-0.2,1.1-0.5c0.3-0.3,0.7-0.7,0.9-1.2
	s0.5-1,0.7-1.5s0.4-1,0.5-1.3l-0.1,0.1c0.3-0.8,0.4-1.7,0.5-2.6s0.1-1.7,0.1-2.6c0-0.4,0-0.9-0.1-1.5s-0.1-1.2-0.3-1.8
	s-0.3-1.3-0.5-1.9s-0.4-1.2-0.7-1.6s-0.7-0.8-1.1-1c-0.3-0.2-0.6-0.3-1-0.3c-0.1,0-0.3,0-0.4,0c-0.5,0.1-0.9,0.3-1.2,0.7
	s-0.6,0.8-0.8,1.3s-0.4,1.1-0.5,1.8s-0.2,1.3-0.3,1.9s-0.1,1.3-0.1,1.8S7.6,55.2,7.6,55.7z M13.7,59.9L13.7,59.9L13.7,59.9z
	 M19.6,63.7c0-0.3,0-0.5,0-0.8c0-0.9,0-1.7,0.1-2.6c0.1-1.1,0.2-2.3,0.2-3.4c0-1.3,0.1-2.7,0.2-4.1c0-0.8,0.1-1.5,0.1-2.3
	c0-0.6,0-1.2,0-1.8c0.1-0.2,0.2-0.4,0.4-0.4s0.3-0.1,0.6-0.1c0.1,0,0.2,0,0.3,0s0.2,0.1,0.3,0.1c0.1,0,0.3,0,0.5,0.1
	c0.2,0,0.3,0.1,0.4,0.2c0,0.1,0.1,0.2,0.3,0.6s0.3,0.7,0.5,1.2s0.4,1,0.6,1.5s0.4,1,0.6,1.5s0.4,0.9,0.5,1.3s0.2,0.6,0.3,0.7
	c0.9-1.5,1.7-3.1,2.5-4.8s1.7-3.2,2.7-4.6c0.1-0.1,0.2-0.2,0.5-0.3c0.2-0.1,0.4-0.1,0.6-0.1c0.4,0,0.7,0.1,0.9,0.3s0.3,0.4,0.3,0.7
	c0,0.2,0.1,0.4,0.1,0.6c0,0.1,0,0.2,0,0.3c0,0.3-0.1,0.7-0.1,1c0,2.1-0.1,4.2-0.2,6.3c-0.1,2.1-0.3,4.2-0.4,6.3c0,0.4,0,0.9,0,1.4
	s0,1,0,1.5c0,0.2,0,0.4,0,0.5c0,0.8-0.1,1.5-0.2,2.2c-0.1,0.2-0.3,0.3-0.6,0.4c-0.3,0.1-0.5,0.1-0.7,0.1c-0.4,0-0.8-0.1-1.2-0.3
	l-0.2-0.2l-0.1-0.2c0,0,0-0.1,0-0.2c0-1.3,0-2.7,0.1-4s0.2-2.7,0.3-4c0.1-1.3,0.2-2.7,0.4-4c0.1-1.3,0.2-2.7,0.3-4
	c-0.5,0.8-1,1.8-1.5,2.7s-1,1.9-1.4,2.8c-0.2,0.4-0.3,0.8-0.5,1.2s-0.3,0.8-0.5,1.1c-0.1,0.2-0.3,0.3-0.6,0.3s-0.5,0.1-0.7,0.1
	s-0.4,0-0.6-0.1s-0.3-0.2-0.4-0.4c-0.3-1-0.7-2-1.1-3s-0.8-2-1.2-3c0,0.7,0,1.5,0,2.6s0,2.2,0,3.3s0,2.2-0.1,3.3
	c0,1-0.1,1.9-0.3,2.5c0,0.2-0.2,0.4-0.4,0.4s-0.5,0.1-0.7,0.1c-0.1,0-0.3,0-0.4,0s-0.3-0.1-0.4-0.1L19.6,63.7z M35.8,65.6
	c0-0.1,0-0.2,0.1-0.6c0-0.3,0.1-0.7,0.1-1.2c0.1-0.5,0.1-1,0.2-1.5c0.1-0.6,0.1-1.1,0.2-1.6s0.1-0.9,0.1-1.3s0.1-0.6,0.1-0.8
	c-0.1,0-0.2-0.1-0.3-0.2c-0.1-0.1-0.2-0.1-0.2-0.2c0-0.1,0.1-0.2,0.2-0.3s0.2-0.1,0.3-0.2c0-0.5,0.1-1.1,0.1-1.9s0.1-1.7,0.3-2.7
	c0.1-1,0.3-1.9,0.5-2.9s0.5-1.9,0.8-2.7s0.7-1.5,1.2-2s1.1-0.8,1.8-0.8s1.3,0.2,1.7,0.7c0.5,0.4,0.8,1,1.1,1.7s0.5,1.5,0.7,2.3
	s0.3,1.7,0.3,2.6c0.1,0.8,0.1,1.6,0.1,2.4c0,0.7,0,1.3,0.1,1.8c0,0.3,0.1,0.5,0.2,0.6c0.1,0.1,0.2,0.2,0.4,0.2
	c0.1,0,0.3,0.1,0.4,0.1c0.1,0,0.2,0.2,0.2,0.3c0,0.2-0.1,0.4-0.4,0.4C45.8,58,45.6,58,45.5,58c0.1,1.1,0.2,2.3,0.4,3.4
	c0.2,1.1,0.4,2.2,0.6,3.3c0,0.2,0.1,0.4,0.2,0.6c0.1,0.2,0.1,0.4,0.1,0.6c0,0.1-0.1,0.3-0.2,0.4c-0.1,0.1-0.2,0.2-0.4,0.2
	c-0.2,0.1-0.3,0.1-0.5,0.1s-0.3,0-0.4,0c-0.4,0-0.8-0.1-1-0.2c-0.3-0.2-0.5-0.5-0.6-0.9c-0.2-1.2-0.5-2.4-0.7-3.7
	c-0.2-1.1-0.3-2.2-0.3-3.3c0-0.2,0-0.3,0-0.5c-0.8,0-1.5,0-2.3,0.1c-0.8,0-1.5,0.2-2.2,0.4c0,0.2-0.1,0.7-0.1,1.4
	c-0.1,0.7-0.2,1.4-0.2,2.2c-0.1,0.8-0.2,1.5-0.3,2.2c-0.1,0.7-0.2,1.2-0.2,1.5c0,0.1-0.1,0.2-0.3,0.4c-0.2,0.1-0.4,0.2-0.5,0.2
	c-0.2,0-0.4-0.1-0.5-0.2C35.8,66.2,35.8,66,35.8,65.6z M38.3,57.3c0.7-0.2,1.4-0.3,2.1-0.3c0.7,0,1.4-0.1,2.2-0.1c0-0.2,0-0.5,0-0.7
	s0-0.5,0-0.7c0-0.5,0-1.2,0-1.9s-0.1-1.4-0.1-2.2s-0.1-1.4-0.2-2.2c-0.1-0.7-0.2-1.3-0.3-1.9s-0.2-1-0.3-1.3s-0.3-0.5-0.4-0.5
	c-0.3,0-0.5,0.3-0.8,0.7c-0.3,0.5-0.5,1.1-0.7,1.8s-0.4,1.5-0.6,2.4c-0.2,0.9-0.3,1.8-0.4,2.6c-0.1,0.9-0.2,1.7-0.3,2.4
	C38.4,56.4,38.3,56.9,38.3,57.3z M49.6,47.2c0-0.4,0.1-0.7,0.2-0.9c0.1-0.2,0.3-0.3,0.5-0.4c0.2-0.1,0.4-0.1,0.7-0.1s0.6,0,1,0
	c0.9,0,1.9,0.1,2.9,0.4c1,0.3,1.8,0.7,2.6,1.3s1.4,1.3,1.9,2.1s0.7,1.8,0.7,2.8c0,0.7-0.1,1.4-0.3,2s-0.5,1.2-0.9,1.8
	s-0.8,1.1-1.3,1.5c-0.5,0.5-1.1,0.9-1.7,1.2c0.2,0.2,0.6,0.7,1,1.3s0.8,1.3,1.2,2s0.7,1.4,1,2.1s0.5,1.2,0.5,1.5L59.3,66
	c-0.2,0.1-0.5,0.2-0.9,0.2c-0.2,0-0.4,0-0.6-0.1c-0.3,0-0.4-0.2-0.5-0.4c-0.4-1-0.8-2.1-1.2-3.2c-0.4-1.1-1-2.1-1.6-3l0,0
	c-0.2,0.1-0.5,0.2-0.7,0.3S53.4,60,53.1,60c0.1,1,0.1,2,0.2,3c0.1,1,0.1,2,0.1,3c0,0.1-0.1,0.2-0.2,0.3c-0.1,0.1-0.3,0.1-0.4,0.2
	c-0.2,0-0.3,0.1-0.5,0.1s-0.3,0-0.4,0c-0.1,0-0.2,0-0.4,0s-0.3-0.1-0.5-0.1s-0.3-0.1-0.4-0.2c-0.1-0.1-0.2-0.2-0.2-0.3
	c0-1,0-2-0.1-3c0-1-0.1-2-0.2-3c-0.3-0.2-0.4-0.4-0.4-0.7c0-0.2,0.1-0.4,0.3-0.5c-0.1-1.9-0.2-3.8-0.4-5.8
	C49.6,51.1,49.6,49.1,49.6,47.2z M52,46.8c0.1,2,0.3,3.9,0.4,5.9c0.2,1.9,0.3,3.9,0.5,5.9c0.6-0.2,1.2-0.5,1.8-1s1-1,1.4-1.5
	c0.4-0.6,0.7-1.2,0.9-1.8c0.2-0.7,0.3-1.3,0.3-2s-0.1-1.4-0.4-2.1c-0.3-0.7-0.7-1.3-1.2-1.8s-1.1-0.9-1.7-1.2
	c-0.6-0.2-1.2-0.4-1.8-0.4L52,46.8L52,46.8z"/>
<path class="st2" d="M40.2,16.5c1.7-1.3,3.5-2.6,5.2-3.9"/>
<path class="st2" d="M40,18.5c2.2-1.2,4.3-2.3,6.5-3.5"/>
<path class="st2" d="M39.8,20.6c2.6-0.9,5.2-1.8,7.8-2.6"/>
<path class="st2" d="M40,23.3c2.1-0.9,4.3-1.8,6.4-2.6"/>
<path class="st2" d="M40,24.6c2.6-1,5.2-2.1,7.8-3.1"/>
<path class="st3" d="M36.1,32.7c4.1-3.3,8.2-6.6,12.3-10"/>
<path class="st3" d="M37.9,34.1c3.4-3.2,6.9-6.4,10.3-9.6"/>
<path class="st3" d="M37.8,36c3.1-2.6,6.2-5.3,9.4-7.9"/>
<path class="st4" d="M19.9,16.7c-2.2-1.3-4.4-2.6-6.6-3.9"/>
<path class="st4" d="M20.7,19.5c-2.9-1.7-5.7-3.3-8.6-5"/>
<path class="st4" d="M19.6,22.4c-2.4-1.9-4.8-3.9-7.1-5.8"/>
<path class="st4" d="M20.1,26.9c-2.5-3.1-4.9-6.2-7.4-9.3"/>
<path class="st4" d="M19.7,29.3c-2.6-3.5-5.2-6.9-7.7-10.4"/>
<path class="st4" d="M19.8,32.8c-2.7-4.1-5.3-8.2-8-12.3"/>
<path class="st3" d="M36.6,36.3c-4.9-0.5-9.8-1.1-14.6-1.6"/>
<path class="st3" d="M23.5,37.7c3.3,0.2,6.7,0.3,10,0.5"/>
<path class="st4" d="M22,37.5c-3.2-4-6.4-8.1-9.5-12.1"/>
<path class="st4" d="M16.9,10.2c2.9-1.8,5.8-3.6,8.7-5.4"/>
<path class="st4" d="M16,11.1c3.9-2,7.8-3.9,11.7-5.9"/>
<path class="st4" d="M17.1,12c5.3-2.6,10.6-5.2,15.8-7.7"/>
<path class="st4" d="M17.7,12.8c5.4-2.4,10.9-4.7,16.3-7.1"/>
<path class="st3" d="M30.2,8.6c3.8-0.1,7.5-0.2,11.3-0.3"/>
<path class="st2" d="M39.3,15c1.6-1.3,3.2-2.6,4.9-3.9"/>
<path class="st3" d="M38.2,13.7c1.6-1.6,3.3-3.1,4.9-4.7"/>
<path class="st3" d="M36.8,11.6c1.9-1.1,3.7-2.2,5.6-3.2"/>
</svg>
