<?xml version="1.0" encoding="UTF-8"?>
<svg id="Layer_1" data-name="Layer 1" xmlns="http://www.w3.org/2000/svg" viewBox="0 0 55.55 63.95">
  <defs>
    <style>
      .cls-1 {
        stroke: #5aba47;
      }

      .cls-1, .cls-2, .cls-3, .cls-4, .cls-5 {
        fill: none;
        stroke-miterlimit: 10;
        stroke-width: .25px;
      }

      .cls-2 {
        stroke: #5bba49;
      }

      .cls-3 {
        stroke: #5bba48;
      }

      .cls-4 {
        stroke: #3b54a5;
      }

      .cls-5 {
        stroke: #79c143;
      }
    </style>
  </defs>
  <path class="cls-5" d="M44.42,20.82h0c.2,.1,.3,.2,.3,.3s-.1,.2-.2,.4-.2,.3-.2,.4c0,.4-.1,.8-.2,1-.1,.2-.2,.5-.3,.9s-.2,.6-.2,.7c0,0,0,.1-.1,.2s-.1,.2-.1,.2c.1,.3,.1,.5,.1,.6v.1c0,.1-.1,.3-.3,.4s-.3,.3-.3,.3c-.1,.1-.1,.2-.2,.3v.7c0,.1-.1,.4-.2,.7s-.2,.6-.3,.6c0,0,0,.1-.1,.2s-.1,.2-.1,.2c0,0-.1,.1-.2,.1,0,.4,0,.6-.1,.8,0,.1-.1,.2-.3,.3s-.2,.2-.3,.3c-.1,.2-.4,.4-.7,.6-.4,.4-.6,.6-.8,.7l-.2,.2c-.1,.1-.1,.2-.1,.3l-.3,.3c-.1,.1-.2,.3-.3,.3s-.1,.1-.2,.2-.2,.1-.2,.1c0,0-.1,.1-.1,.2s-.1,.2-.3,.2c-.1,0-.2,.1-.5,.3s-.4,.2-.5,.3-.2,.1-.3,.2c-.1,0-.2,.1-.2,.3s-.1,.2-.1,.3c-.1,.2-.2,.3-.4,.3h-.3q-.1,0-.2,.1c-.1,.1-.2,.1-.2,.2s-.1,.2-.2,.2c-.6,.5-1,.7-1.3,.7l-.3-.1c-.1,0-.2,0-.2,.1-.1,.1-.2,.1-.3,.1h-.1c-.1,0-.3-.1-.4-.3h-.4c-.1,0-.3,.1-.5,.2s-.4,.3-.4,.4c-.1,.2-.2,.3-.3,.3h-.1c-.1,0-.2-.1-.2-.1l-.1-.1h-.1s-.1,0-.2,.1c-.1,.1-.2,.1-.3,.1h-.8c-.1,0-.2,.1-.3,.1s-.2,.1-.3,.1h-.2c-.1,.1-.3,.1-.5,.1-.1,0-.2,0-.3,.1s-.3,0-.4,0h-.4q-.1,0-.2-.1h-.6c-.3,0-.5,0-.6-.1,0,0-.1,0-.3-.1h-1c-.6,.1-.9,.1-1,.2h-.1c-.1,0-.2-.1-.3-.2s-.2-.2-.3-.2-.3-.1-.6-.1-.5-.1-.6-.1h-.2c-.3,.1-.5,.1-.5,.1,0,0-.2,0-.5-.1-.4-.1-.6-.1-.7-.1s-.4-.1-.7-.2-.5-.2-.6-.2c-.4-.1-.9-.3-1.4-.6-.5,0-1-.1-1.3-.3-.2,0-.4-.2-.8-.4s-.5-.4-.6-.5c-.3,.1-.4,.2-.6,.2q-.1,0-.1-.1v-.3c0-.1-.1-.1-.3-.2-.6-.3-1.2-.9-1.9-1.8-.7-.6-1.1-1-1.2-1.3-.2-.1-.4-.3-.6-.5s-.3-.4-.4-.5c-.2-.2-.5-.8-.8-1.8-.5-.7-.7-1.2-.7-1.5-.6-1-.9-1.9-.9-2.6-.4-.8-.7-1.6-.7-2.3v-3.6c-.2,0-.3-.1-.3-.2s.1-.3,.3-.5c.1-.1,.1-.2,.2-.4v-.4c0-.4,.1-.8,.2-1.2,0,0,0-.1,.1-.3s.1-.3,.1-.3c0-.1,.1-.2,.1-.5s.1-.4,.1-.5v-.3c0-.3,0-.7,.1-1,0-.2,.1-.5,.2-.9,0-.1,.1-.2,.1-.4s0-.3,.1-.4c.1-.4,.5-.8,1.1-1.3,.2-.4,.4-.8,.4-1,0-.1,.1-.2,.1-.3s.1-.2,.1-.3c.1-.1,.2-.3,.4-.4l.1-.1c.4-.5,.7-.7,.7-.6v-.2c0-.3,.2-.6,.7-.9,.3-.3,.6-.5,.9-.7,0,0,.1-.1,.2-.1s.2-.1,.2-.1c0-.2,0-.3,.1-.4s.2-.2,.3-.2,.3-.1,.3-.1c.1-.1,.2-.2,.4-.3s.5-.3,.6-.4c0-.1,.2-.3,.5-.5,.7-.3,1.1-.5,1.3-.5,0,0,.1-.1,.3-.1s.2,0,.3-.1c.1,0,.2-.1,.3-.2s.3-.1,.3-.2c.1,0,.2-.2,.4-.4s.3-.3,.5-.3h.7s.1-.1,.2-.1h.1c0-.1,.2-.2,.4-.3s.4-.2,.6-.2h.1c.1,0,.1,.1,.2,.1s.1,.1,.1,.1l.2-.1s.2-.1,.5-.2h.2c.1,0,.2,0,.2,.1,.1-.1,.2-.1,.2-.1h.2s.1,0,.3-.1,.2-.1,.2-.1h.5c.2,0,.4,0,.7-.1s.5-.1,.6-.1h.3c.1-.1,.2-.1,.3-.1h.1c.3,.1,.5,.1,.7,.1h3.1c.4,0,.7,.1,.9,.4,0,.1,.1,.2,.2,.2,0,0,.1,0,.3-.1s.2-.1,.3-.1c.5,0,.7,0,.7,0,.1,0,.2,0,.2,.1,.1,.1,.1,.2,.1,.3v.2h-.1l.6,.2s-.1,0-.2-.1c0,0,.2-.1,.6-.3h.1c.1,0,.2,.1,.2,.3v.2s.2,0,.4,.1,.3,.1,.4,.1,.2,.1,.4,.1,.3,.1,.4,.1,.2,.1,.4,.2,.2,.2,.3,.3c.2,0,.4,.1,.7,.3s.5,.3,.6,.4l.4,.2s.1,0,.2-.1,.2-.1,.2-.1h.2s.1,.1,.1,.2v.3c.8,.4,1.5,.8,2,1.5,.3,.2,.6,.4,.8,.8q.1,.1,.2,.1s.1,0,.4-.1c.1,0-.09,.4,.11,.4s.39,.3,.39,.4c0,0-.39-.5-.39-.4s.49,.2,.39,.4l-.1,.2h0v.1c0,.1,.1,.1,.1,.1,0,.1,.1,.2,.3,.3s.2,.2,.3,.3c0,.1,.1,.2,.3,.5s.3,.5,.4,.7c.1,.1,.2,.5,.5,1,.1,.1,.2,.2,.2,.2,0,0,.1,0,.1-.1s.1-.1,.2-.1h.1c.1,0,.1,.1,.1,.2s0,.1,.1,.1c.2,.1,.3,.1,.3,.2v.2c0,.1-.1,.3-.3,.5h.1c.2,0,.3,.1,.3,.2s0,.2-.1,.2-.2,.1-.2,.2c0,0,0,.1,.1,.3,.2,.4,.3,.7,.3,1,0,0,.1-.1,.2-.1s.2,.1,.2,.2v.1c0,.1-.1,.1-.2,.2s-.2,.2-.2,.2v.9c.1,.4,.2,.7,.2,1,.1,.2,.2,.5,.2,1v2.1h.2c.2,0,.3,.1,.3,.3,0,.3-.1,.6-.4,.8,.1,.2,.1,.4,.1,.5,.3,.2,.3,.3,.2,.6Zm-28.9,4.1h0Zm1-.4s.1,.1,.2,.1,.2,.1,.2,.1v.1c0,.1-.1,.3-.2,.4l.1,.3c.1,.2,.3,.5,.4,.8,.1,.2,.3,.6,.4,1.1s.3,.9,.4,1.1c.4-.2,.6-.4,.7-.4h.2q.1,0,.1,.1c0,.2-.1,.3-.2,.5,0,0-.1,.1-.2,.1s-.1,.1-.1,.1v.1l.2,.3,.2,.2c.3,.2,.4,.3,.6,.5,.2-.2,.4-.2,.6-.2h0c.1,0,.2,.2,.2,.3v.1c0,.1-.1,.1-.1,.2h0l.1,.1c.2,0,.4,.2,.8,.5,.1,0,.3,.1,.7,.3s.7,.2,1,.2,.5,0,.7,.1h.8c.3,.1,.4,.1,.5,.1,.2-.1,.3-.2,.5-.2h.1c.1,0,.2,0,.4,.1,.2-.1,.3-.1,.4-.1s.3,0,.6-.1,.5-.1,.7-.1c.3,0,.4,.1,.6,.3,0,0,.1-.2,.3-.3s.3-.3,.4-.4,.2-.2,.4-.2c.4-.2,.7-.4,.8-.6,.1-.2,.3-.4,.5-.6,0-.1,0-.2,.1-.3,0-.1,.2-.2,.5-.3s.4-.3,.4-.4,.1-.3,.3-.4c0-.1,0-.2,.1-.4s.2-.2,.2-.3,.1-.3,.2-.4,.2-.3,.2-.4c.5-1.6,1-3.3,1.3-5,0,0-.1,0-.1,.1s-.2,.1-.2,.1c0,0-.1,.1-.2,.1s-.2,0-.2-.1v-.2c0-.1,.1-.3,.2-.5,.1-.1,.2-.2,.4-.3s.3-.2,.4-.3,.1-.3,.1-.4c-.3,.1-.4,.2-.5,.2s-.1,0-.2-.1v-.2l.1-.1,.1-.1c.2-.1,.4-.2,.4-.3,0,0-.1-.1-.2-.2s-.2-.2-.2-.4v-.1s.1-.2,.1-.3,.1-.3,.1-.4v-.4c-.1-.3-.1-.5-.1-.9v-.3c0-.1-.1-.3-.1-.7v-.5c-.1-.5-.1-.8-.1-.9-.2-.4-.3-1-.4-1.7-.1,.1-.2,.1-.4,.1s-.3-.1-.3-.2l.1-.2c.2-.3,.3-.4,.3-.5v-.3l-.2-.4-.1-.1s-.1,0-.3,.1-.3,.1-.3,.1q-.1,0-.2-.1v-.1c0-.1,.1-.2,.3-.3s.3-.2,.3-.3v-.1c-.1-.2-.2-.4-.3-.5-.3-.3-.5-.7-.7-1-.1-.3-.4-.6-.8-1s-.7-.6-.9-.7c-.1,0-.3-.1-.7-.3s-.8-.3-1-.3c-.4,0-.8-.1-1.2-.2-.1-.1-.4-.1-.7-.2s-.6-.2-.7-.2-.3,.1-.5,.1-.3,.1-.4,.2h-.4c-.3,0-.5,0-.5-.1-.3,0-.7,.1-1,.5-.3,.3-.8,.5-1.3,.6-.7,.2-1,.3-1,.3v.2c0,.2-.2,.5-.5,.8l-.4,.2s-.1,.1-.2,.2-.2,.1-.2,.2c-.4,.3-.6,.5-.8,.7,0,.1-.1,.3-.2,.4s-.2,.2-.2,.3-.1,.3-.2,.5-.2,.4-.2,.5c0,0-.1,.1-.2,.3s-.2,.4-.2,.5c0,.4,0,.7-.1,.9-.1,.8-.2,1.3-.2,1.3-.1,.3-.2,.6-.2,1.1s-.1,.9-.2,1.1-.1,.6-.1,1v.5c.1,.1,.1,.3,.1,.5v1h.1c.1,0,.2,0,.3,.1s.2,.1,.2,.2c0,0,0,.1-.1,.1-.3,.1-.5,.3-.5,.4v.1h.2c.1,0,.2,.1,.2,.2,0,0,0,.1-.1,.3s-.1,.2-.1,.3h0v.2c0,.1,0,.2-.1,.3s-.1,.2-.1,.3v.1c.2-.2,.4-.2,.6-.2h0c.1,0,.2,.1,.2,.1,0,.1-.1,.2-.2,.4s-.2,.2-.3,.3c.3,0,.4,.1,.4,.2,0,.2-.1,.4-.3,.6-.1,.1-.1,.2-.1,.3-.2,.2-.2,.3-.1,.4Zm3.8,11.3h0Zm24-16.7h0Zm-1.3-8.2h-.1q0,.1,.1,0c-.1,.1,0,0,0,0ZM30.23,1.22h0c0-.1-.1-.1-.1,0h.1Z"/>
  <path class="cls-4" d="M.12,52.92c0-.5,0-1.2,.1-2l.3-2.4c.1-.8,.4-1.7,.6-2.5s.6-1.5,1-2.2,.9-1.1,1.5-1.5c.5-.3,1-.5,1.7-.5h.4c1.6,.1,2.8,.5,3.7,1.1s1.5,1.3,1.9,2.2c.4,.9,.6,1.9,.7,3s.1,2.3,.1,3.6c0,1-.1,2.1-.3,3.3s-.5,2.3-1,3.3-1.1,1.9-2,2.6c-.8,.7-1.9,1-3.2,1-.8,0-1.5-.1-2.1-.4s-1.1-.7-1.5-1.1c-.4-.5-.7-1-1-1.7s-.5-1.3-.6-2-.1-1.2-.2-1.9-.1-1.3-.1-1.9Zm2.8-.6v1.4c0,.5,0,1.2,.1,1.8s.2,1.3,.3,1.9,.3,1.2,.5,1.7,.5,.9,.8,1.3c.3,.3,.7,.5,1.2,.5h.1c.4,0,.8-.2,1.1-.5,.3-.3,.7-.7,.9-1.2s.5-1,.7-1.5,.4-1,.5-1.3l-.1,.1c.3-.8,.4-1.7,.5-2.6s.1-1.7,.1-2.6c0-.4,0-.9-.1-1.5s-.1-1.2-.3-1.8-.3-1.3-.5-1.9-.4-1.2-.7-1.6-.7-.8-1.1-1c-.3-.2-.6-.3-1-.3h-.4c-.5,.1-.9,.3-1.2,.7s-.6,.8-.8,1.3-.4,1.1-.5,1.8-.2,1.3-.3,1.9-.1,1.3-.1,1.8,.3,1.1,.3,1.6Zm6.1,4.2h0Zm5.9,3.8v-.8c0-.9,0-1.7,.1-2.6,.1-1.1,.2-2.3,.2-3.4,0-1.3,.1-2.7,.2-4.1,0-.8,.1-1.5,.1-2.3v-1.8c.1-.2,.2-.4,.4-.4s.3-.1,.6-.1h.3c.1,0,.2,.1,.3,.1s.3,0,.5,.1c.2,0,.3,.1,.4,.2,0,.1,.1,.2,.3,.6s.3,.7,.5,1.2,.4,1,.6,1.5,.4,1,.6,1.5,.4,.9,.5,1.3,.2,.6,.3,.7c.9-1.5,1.7-3.1,2.5-4.8s1.7-3.2,2.7-4.6c.1-.1,.2-.2,.5-.3,.2-.1,.4-.1,.6-.1,.4,0,.7,.1,.9,.3s.3,.4,.3,.7c0,.2,.1,.4,.1,.6v.3c0,.3-.1,.7-.1,1,0,2.1-.1,4.2-.2,6.3-.1,2.1-.3,4.2-.4,6.3v3.4c0,.8-.1,1.5-.2,2.2-.1,.2-.3,.3-.6,.4-.3,.1-.5,.1-.7,.1-.4,0-.8-.1-1.2-.3l-.2-.2-.1-.2v-.2c0-1.3,0-2.7,.1-4s.2-2.7,.3-4c.1-1.3,.2-2.7,.4-4,.1-1.3,.2-2.7,.3-4-.5,.8-1,1.8-1.5,2.7s-1,1.9-1.4,2.8c-.2,.4-.3,.8-.5,1.2s-.3,.8-.5,1.1c-.1,.2-.3,.3-.6,.3s-.5,.1-.7,.1-.4,0-.6-.1-.3-.2-.4-.4c-.3-1-.7-2-1.1-3s-.8-2-1.2-3v5.9c0,1.1,0,2.2-.1,3.3,0,1-.1,1.9-.3,2.5,0,.2-.2,.4-.4,.4s-.5,.1-.7,.1h-.4c-.1,0-.3-.1-.4-.1l-.1-.4Zm16.2,1.9c0-.1,0-.2,.1-.6,0-.3,.1-.7,.1-1.2,.1-.5,.1-1,.2-1.5,.1-.6,.1-1.1,.2-1.6s.1-.9,.1-1.3,.1-.6,.1-.8c-.1,0-.2-.1-.3-.2-.1-.1-.2-.1-.2-.2s.1-.2,.2-.3,.2-.1,.3-.2c0-.5,.1-1.1,.1-1.9s.1-1.7,.3-2.7c.1-1,.3-1.9,.5-2.9s.5-1.9,.8-2.7,.7-1.5,1.2-2,1.1-.8,1.8-.8,1.3,.2,1.7,.7c.5,.4,.8,1,1.1,1.7s.5,1.5,.7,2.3,.3,1.7,.3,2.6c.1,.8,.1,1.6,.1,2.4,0,.7,0,1.3,.1,1.8,0,.3,.1,.5,.2,.6,.1,.1,.2,.2,.4,.2,.1,0,.3,.1,.4,.1s.2,.2,.2,.3c0,.2-.1,.4-.4,.4-.3,.2-.5,.2-.6,.2,.1,1.1,.2,2.3,.4,3.4,.2,1.1,.4,2.2,.6,3.3,0,.2,.1,.4,.2,.6,.1,.2,.1,.4,.1,.6,0,.1-.1,.3-.2,.4-.1,.1-.2,.2-.4,.2-.2,.1-.3,.1-.5,.1h-.4c-.4,0-.8-.1-1-.2-.3-.2-.5-.5-.6-.9-.2-1.2-.5-2.4-.7-3.7-.2-1.1-.3-2.2-.3-3.3v-.5c-.8,0-1.5,0-2.3,.1-.8,0-1.5,.2-2.2,.4,0,.2-.1,.7-.1,1.4-.1,.7-.2,1.4-.2,2.2-.1,.8-.2,1.5-.3,2.2-.1,.7-.2,1.2-.2,1.5,0,.1-.1,.2-.3,.4-.2,.1-.4,.2-.5,.2-.2,0-.4-.1-.5-.2-.3,0-.3-.2-.3-.6Zm2.5-8.3c.7-.2,1.4-.3,2.1-.3s1.4-.1,2.2-.1v-3.3c0-.7-.1-1.4-.1-2.2s-.1-1.4-.2-2.2c-.1-.7-.2-1.3-.3-1.9s-.2-1-.3-1.3-.3-.5-.4-.5c-.3,0-.5,.3-.8,.7-.3,.5-.5,1.1-.7,1.8s-.4,1.5-.6,2.4c-.2,.9-.3,1.8-.4,2.6-.1,.9-.2,1.7-.3,2.4-.1,1-.2,1.5-.2,1.9Zm11.3-10.1c0-.4,.1-.7,.2-.9,.1-.2,.3-.3,.5-.4,.2-.1,.4-.1,.7-.1h1c.9,0,1.9,.1,2.9,.4,1,.3,1.8,.7,2.6,1.3s1.4,1.3,1.9,2.1,.7,1.8,.7,2.8c0,.7-.1,1.4-.3,2s-.5,1.2-.9,1.8-.8,1.1-1.3,1.5c-.5,.5-1.1,.9-1.7,1.2,.2,.2,.6,.7,1,1.3s.8,1.3,1.2,2,.7,1.4,1,2.1,.5,1.2,.5,1.5l-.3,.2c-.2,.1-.5,.2-.9,.2-.2,0-.4,0-.6-.1-.3,0-.4-.2-.5-.4-.4-1-.8-2.1-1.2-3.2-.4-1.1-1-2.1-1.6-3h0c-.2,.1-.5,.2-.7,.3s-.4,.2-.7,.2c.1,1,.1,2,.2,3,.1,1,.1,2,.1,3,0,.1-.1,.2-.2,.3-.1,.1-.3,.1-.4,.2-.2,0-.3,.1-.5,.1h-.8c-.2,0-.3-.1-.5-.1s-.3-.1-.4-.2c-.1-.1-.2-.2-.2-.3,0-1,0-2-.1-3,0-1-.1-2-.2-3-.3-.2-.4-.4-.4-.7,0-.2,.1-.4,.3-.5-.1-1.9-.2-3.8-.4-5.8,0-1.9,0-3.9,0-5.8Zm2.4-.4c.1,2,.3,3.9,.4,5.9,.2,1.9,.3,3.9,.5,5.9,.6-.2,1.2-.5,1.8-1s1-1,1.4-1.5c.4-.6,.7-1.2,.9-1.8,.2-.7,.3-1.3,.3-2s-.1-1.4-.4-2.1c-.3-.7-.7-1.3-1.2-1.8s-1.1-.9-1.7-1.2c-.6-.2-1.2-.4-1.8-.4h-.2Z"/>
  <path class="cls-1" d="M35.54,13.09c1.73-1.3,3.46-2.61,5.19-3.91"/>
  <path class="cls-1" d="M35.37,15.14l6.47-3.49"/>
  <path class="cls-1" d="M35.11,17.26l7.83-2.64"/>
  <path class="cls-1" d="M35.28,19.9c2.13-.88,4.26-1.76,6.38-2.64"/>
  <path class="cls-1" d="M35.28,21.18c2.61-1.05,5.22-2.1,7.83-3.15"/>
  <path class="cls-3" d="M31.45,29.35c4.09-3.32,8.17-6.64,12.26-9.96"/>
  <path class="cls-3" d="M33.24,30.71c3.43-3.21,6.87-6.41,10.3-9.62"/>
  <path class="cls-3" d="M33.15,32.58l9.36-7.91"/>
  <path class="cls-2" d="M15.2,13.35c-2.18-1.3-4.37-2.61-6.55-3.91"/>
  <path class="cls-2" d="M16.05,16.16c-2.87-1.67-5.73-3.35-8.6-5.02"/>
  <path class="cls-2" d="M14.94,19.05c-2.38-1.93-4.77-3.86-7.15-5.79"/>
  <path class="cls-2" d="M15.45,23.56c-2.47-3.09-4.94-6.18-7.4-9.28"/>
  <path class="cls-2" d="M15.03,25.94c-2.58-3.46-5.16-6.92-7.74-10.38"/>
  <path class="cls-2" d="M15.11,29.43c-2.67-4.11-5.33-8.23-8-12.34"/>
  <path class="cls-3" d="M31.88,32.92c-4.88-.54-9.76-1.08-14.64-1.62"/>
  <path class="cls-3" d="M18.86,34.37l10.04,.51"/>
  <path class="cls-2" d="M17.32,34.11c-3.18-4.03-6.35-8.06-9.53-12.09"/>
  <path class="cls-2" d="M12.22,6.8c2.89-1.79,5.79-3.57,8.68-5.36"/>
  <path class="cls-2" d="M11.37,7.73c3.91-1.96,7.83-3.91,11.74-5.87"/>
  <path class="cls-2" d="M12.39,8.67c5.28-2.58,10.55-5.16,15.83-7.74"/>
  <path class="cls-2" d="M13.07,9.43c5.45-2.35,10.89-4.71,16.34-7.06"/>
  <path class="cls-3" d="M25.5,5.26c3.77-.11,7.55-.23,11.32-.34"/>
  <path class="cls-1" d="M34.6,11.65c1.62-1.3,3.23-2.61,4.85-3.91"/>
  <path class="cls-3" d="M33.5,10.37c1.65-1.56,3.29-3.12,4.94-4.68"/>
  <path class="cls-3" d="M32.13,8.24c1.87-1.08,3.74-2.16,5.62-3.23"/>
</svg>