<svg id="Layer_1" data-name="Layer 1" xmlns="http://www.w3.org/2000/svg" viewBox="0 0 1163.19 623.77">
<style>
    #Layer_1{
        width: 100%;
    }
</style>
    <path className="cls-1"
        d="M679.72,282.5c0,132.71-80.65,203.06-179.04,203.06s-173.32-78.94-173.32-195.63c0-122.41,76.08-202.49,179.04-202.49s173.32,80.65,173.32,195.05Zm-299.16,6.29c0,82.37,44.62,156.16,122.98,156.16s123.55-72.65,123.55-160.16c0-76.65-40.04-156.73-122.98-156.73s-123.55,76.08-123.55,160.73Z" />
    <path className="cls-2"
        d="M687.72,283.5c0,132.71-80.65,203.06-179.04,203.06s-173.32-78.94-173.32-195.63c0-122.41,76.08-202.49,179.04-202.49s173.32,80.65,173.32,195.05Zm-299.16,6.29c0,82.37,44.62,156.16,122.98,156.16s123.55-72.65,123.55-160.16c0-76.65-40.04-156.73-122.98-156.73s-123.55,76.08-123.55,160.73Z" />
    <path className="cls-3"
        d="M32.05,320.1l221.79-114.24v32.98l-186.9,93.69v.96l186.9,93.69v32.98L32.05,345.91v-25.81Z" />
    <g>
        <path className="cls-4" id='tada' d="M738.48,476.35l113-293.62h27.54l-113.4,293.62h-27.13Z" />
        <path className="cls-5"
            d="M1131.14,346.39l-221.79,113.76v-32.98l188.33-93.69v-.96l-188.33-93.69v-32.98l221.79,113.76v26.77Z" />
    </g>
</svg>