<?xml version="1.0" encoding="UTF-8"?><svg id="a" xmlns="http://www.w3.org/2000/svg" viewBox="0 0 2000 1500"><defs><style>.d{fill:#fff;}.e{fill:#4d7e3e;}</style></defs><rect class="d" width="2000" height="1500"/><g transform="matrix(0.75,0,0,0.75,249.0912502906757,576.5363562350985)"><g id="b" transform="matrix(1,0,0,1,0.24009007673839733,-0.14179532652030957)"><g><g><path class="e" d="M1296.38,650.87c-4.92-36.23-18.97-46.31-18.97-46.31-43.1-37.32-96.89-29.28-145.22-23.91-85.32,.22-170.29,8.19-255.41,12.46-178.66,.65-358.85-10.07-536.62,16.38-16.7,8.12-106.45,1.59-86.16,46.02,5.32,18.48,24.73,38.99,24.14,55.94,2.66,2.97,6.36-3.84,7.93,.43,5.52,11.52,14.53,6.09,21.92,12.9-10.3,18.19-2.91,33.33,4.14,49.21-12.41,4.13-28.32,2.17-35.46,15.87-.74,9.93-4.73,8.04-9.11,7.61-3.2-.29-9.66,.8-8.57,3.91,3.7,10.65-12.17,16.81-2.22,27.25-6.85,11.3,4.73,21.09,3.16,33.33-.2,2.46,.88,4.56,2.61,5.14,7.63,3.12-3.5,9.2-2.32,15.8,78.32,45.07,163.29,13.91,243.54,34.64,20.84-14.49,5.17,5.15,13.5,2.1,6.5-3.55,11.23,11.16,18.57,2.82,1.13-2.39-.59-8.04,3.45-6.96,2.12,.58,3.99,.43,4.29-2.9,.45-5-3.45-1.88-4.48-4.49,11.18-13.19,8.42,18.19,18.91,16.89-.49-3.84-3.54-9.35,2.71-8.62,6.21-5.51,6.4-10.07,11.92,2.32,.2,2.68,1.18,4.56,2.76,5.87,17.24-13.48,34.38,4.78,52.46-1.31,11.08-6.67,21.72,3.62,32.95,1.09,3.94-2.03,7.93-5.65,11.73,.43,46.45,1.3,95.95-4.13,139.99,.22,117.68-8.12,243.43,3.33,367.52-7.39,29.26-4.13,59.65-10,88.17-14.71,0,0,23.1-12.9,23.1-70.88s4.92-50.73,5.66-96.89c.74-46.16,4.19-48.05-.74-84.28h.15Z"/><g transform="matrix(1,0,0,1,55.76832,26.230666666666675)"><path id="c" class="d" d="M486.89,855.58c-18.14,0-33.85-4.81-47.14-14.44-13.29-9.59-23.38-22.46-30.28-38.63-6.93-16.16-10.49-33.94-10.67-53.33h0c-.18-15.26,2.6-30.85,8.35-46.76,5.75-15.87,14.99-29.34,27.74-40.4,12.75-11.03,29.18-16.54,49.29-16.54h0c20.29,0,36.96,5.24,49.99,15.73,13,10.52,22.43,23.69,28.28,39.49,5.82,15.8,8.73,31.96,8.73,48.48h0c0,19.57-3.14,37.39-9.43,53.44-6.28,16.09-15.75,28.93-28.39,38.52-12.68,9.62-28.17,14.44-46.49,14.44h0Zm0-5.39c21.73,0,37.49-9.39,47.3-28.17,9.77-18.75,14.56-43.02,14.38-72.83h0c-.18-15.44-2.55-30.71-7.11-45.79-4.6-15.08-11.69-27.62-21.28-37.6-9.62-9.95-21.62-14.92-35.99-14.92h0c-14.55,0-26.49,5.42-35.82,16.27-9.34,10.88-16.11,24.13-20.31,39.76-4.24,15.62-6.36,30.71-6.36,45.25h0c0,18.32,2.39,34.84,7.16,49.56,4.74,14.72,12.01,26.49,21.82,35.29,9.77,8.8,21.84,13.2,36.2,13.2h0Zm315.95-192.59c-3.41-1.08-6.55-1.62-9.43-1.62h0c-3.41,0-6.07,.95-7.97,2.86s-2.8,4.6-2.8,8.19h0v167c0,3.59,.93,6.32,2.8,8.19,1.9,1.9,4.56,2.86,7.97,2.86h0c2.87,0,6.02-.54,9.43-1.62h0v6.73h-60.6v-6.73c3.59,1.08,6.73,1.62,9.43,1.62h0c3.41,0,6.05-.95,7.92-2.86,1.9-1.87,2.86-4.6,2.86-8.19h0v-172.66l-66.26,194.2h-4.04l-72.19-176.96,.27,155.42c0,3.41,1.65,6.11,4.96,8.08,3.34,1.98,7.43,2.96,12.28,2.96h0c3.59,0,7.18-.54,10.77-1.62h0v6.73h-60.87v-6.73c3.41,1.08,6.91,1.62,10.5,1.62h0c4.67,0,8.53-.99,11.58-2.96,3.05-1.98,4.58-4.67,4.58-8.08h0v-167c0-3.41-1.26-6.11-3.77-8.08s-5.93-2.96-10.24-2.96h0c-3.05,0-6.37,.54-9.97,1.62h0v-6.73h41.75l69.49,171.85,55.76-171.85h45.79v6.73Zm164.04,181.81c1.26,4.67,4.49,7,9.7,7h0c3.41,0,7.9-.99,13.47-2.96h0v6.73h-64.91v-6.73c5.21,1.8,9.7,2.69,13.47,2.69h0c4.31,0,6.46-1.53,6.46-4.58h0c0-.9-.11-1.62-.32-2.15h0l-24.24-76.77h-57.05c-6.46,21.55-12.66,43.1-18.59,64.64h0l-1.89,6.73c-.4,1.08-.59,2.42-.59,4.04h0c0,5.21,3.25,7.81,9.75,7.81h0c3.59,0,7.72-.81,12.39-2.42h0v6.73h-56.29v-6.73c4.31,1.62,8.44,2.42,12.39,2.42h0c5.39,0,9.25-2.15,11.58-6.46h0c1.26-2.51,2.33-5.12,3.23-7.81h0l57.1-186.12h15.62l58.72,193.93Zm-76.01-169.96l-26.07,88.35h54.14l-28.07-88.35Zm260.2,175.89c-6.28,5.75-15.08,8.62-26.4,8.62h0c-7.18,0-12.52-2.03-16-6.09-3.52-4.02-5.85-9.05-7-15.08-1.19-6-2.14-14.29-2.86-24.89h0c-.9-13.47-2.28-24.33-4.15-32.59-1.9-8.26-6.03-15.3-12.39-21.12-6.39-5.85-16.14-8.78-29.25-8.78h-8.62v-3.77c16.88,0,29.95-1.49,39.22-4.47,9.23-2.94,15.78-7.65,19.66-14.11,3.84-6.46,5.76-15.44,5.76-26.94h0c0-11.85-4.44-21.91-13.31-30.17-8.91-8.26-23.24-12.39-42.99-12.39h0c-5.39,0-10.95,.72-16.7,2.15h0l-.27,178.31c0,7.36,3.5,11.04,10.5,11.04h0c2.69,0,5.75-.54,9.16-1.62h0v6.73h-60.07v-6.73c3.41,1.08,6.55,1.62,9.43,1.62h0c3.41,0,6.07-.95,7.97-2.86,1.87-1.87,2.8-4.6,2.8-8.19h0v-167c0-3.59-.93-6.32-2.8-8.19-1.9-1.9-4.56-2.86-7.97-2.86h0c-2.87,0-6.02,.54-9.43,1.62h0v-6.73h69.22c19.21,0,35.2,3.86,47.94,11.58,12.75,7.72,19.12,19.66,19.12,35.82h0c0,7.54-1.8,14.63-5.39,21.28-3.59,6.64-9.1,12.16-16.54,16.54-7.47,4.42-16.68,6.99-27.64,7.7h0c10.41,0,18.23,2.82,23.43,8.46,5.21,5.67,8.71,12.5,10.5,20.47,1.8,8.01,3.14,18.39,4.04,31.14h0c.9,12.75,2.21,22.39,3.93,28.93,1.69,6.57,5.14,10.85,10.34,12.82h0c1.44,.54,2.96,.81,4.58,.81h0c3.77,0,7.81-1.71,12.12-5.12h0v4.04Z"/></g></g><g transform="matrix(1,0,0,1,414.2424934099877,20.358216713342728)"><g><path class="e" d="M1462.87,864.99c-2.21,0-4.41-.84-6.1-2.52l-105.83-105.84c-3.36-3.34-3.36-8.84,0-12.18l105.83-105.86c3.36-3.36,8.84-3.36,12.18,0,3.36,3.36,3.36,8.82,0,12.18l-99.74,99.74,99.74,99.74c3.36,3.36,3.36,8.82,0,12.18-1.67,1.71-3.88,2.55-6.08,2.55h0Z"/><path class="e" d="M1632.71,864.99c-2.21,0-4.41-.84-6.1-2.52-3.36-3.36-3.36-8.82,0-12.18l99.74-99.76-99.74-99.74c-3.36-3.36-3.36-8.82,0-12.18s8.82-3.36,12.18,0l105.83,105.86c3.36,3.34,3.36,8.84,0,12.18l-105.83,105.84c-1.67,1.65-3.88,2.5-6.08,2.5Z"/><path class="e" d="M1505.95,871.14c-1.05,0-2.08-.21-3.12-.57-4.43-1.72-6.65-6.7-4.93-11.13l86.15-223.99c1.71-4.43,6.7-6.65,11.13-4.95,4.43,1.72,6.65,6.7,4.95,11.13l-86.15,223.99c-1.31,3.39-4.57,5.51-8.03,5.51h0Z"/></g></g></g></g></g></svg>