<svg xmlns="http://www.w3.org/2000/svg" version="1.1" xmlns:xlink="http://www.w3.org/1999/xlink" xmlns:svgjs="http://svgjs.dev/svgjs" width="2000" height="1500" viewBox="0 0 2000 1500"><rect width="2000" height="1500" fill="#ffffff"></rect><g transform="matrix(0.75,0,0,0.75,249.0912502906757,576.5363562350985)"><svg viewBox="0 0 396 92" data-background-color="#ffffff" preserveAspectRatio="xMidYMid meet" height="464" width="2000" xmlns="http://www.w3.org/2000/svg" xmlns:xlink="http://www.w3.org/1999/xlink"><g id="tight-bounds" transform="matrix(1,0,0,1,0.24009007673839733,-0.14179532652030957)"><svg viewBox="0 0 395.52 92.2835906530406" height="92.2835906530406" width="395.52"><g><svg viewBox="0 0 564.74866677113 131.76839296661964" height="92.2835906530406" width="395.52"><g><svg viewBox="0 0 395.52 131.76839296661964" height="131.76839296661964" width="395.52"><g><svg viewBox="0 0 395.52 131.76839296661964" height="131.76839296661964" width="395.52"><g><svg viewBox="0 0 395.52 131.76839296661964" height="131.76839296661964" width="395.52"><path d="M394.594 28.262C392.735 14.584 387.435 10.782 387.435 10.782 371.165-3.306 350.86-0.269 332.619 1.755 300.414 1.837 268.339 4.846 236.208 6.46 168.767 6.706 100.749 2.657 33.643 12.642 27.339 15.706-6.54 13.244 1.121 30.013 3.129 36.988 10.456 44.73 10.232 51.131 11.236 52.252 12.631 49.681 13.226 51.295 15.309 55.644 18.711 53.593 21.501 56.164 17.614 63.03 20.403 68.747 23.062 74.738 18.377 76.297 12.371 75.559 9.675 80.729 9.396 84.476 7.89 83.765 6.235 83.601 5.026 83.492 2.59 83.902 2.999 85.078 4.394 89.099-1.594 91.425 2.162 95.364-0.422 99.631 3.948 103.324 3.353 107.947 3.278 108.877 3.687 109.67 4.338 109.889 7.22 111.065 3.018 113.363 3.464 115.853 33.029 132.867 65.104 121.105 95.394 128.928 103.259 123.457 97.346 130.871 100.489 129.722 102.943 128.381 104.728 133.934 107.499 130.788 107.927 129.886 107.276 127.752 108.8 128.162 109.6 128.381 110.307 128.326 110.418 127.068 110.586 125.181 109.117 126.357 108.726 125.372 112.947 120.394 111.906 132.238 115.866 131.746 115.68 130.296 114.528 128.217 116.889 128.491 119.232 126.412 119.306 124.688 121.389 129.366 121.463 130.378 121.835 131.089 122.43 131.582 128.938 126.494 135.409 133.387 142.233 131.089 146.417 128.573 150.433 132.457 154.672 131.5 156.16 130.734 157.666 129.366 159.098 131.664 176.632 132.156 195.319 130.105 211.943 131.746 256.364 128.682 303.835 133.004 350.674 128.956 361.719 127.396 373.192 125.181 383.958 123.403 383.958 123.403 392.679 118.533 392.679 96.649S394.538 77.501 394.817 60.076C395.096 42.651 396.398 41.939 394.538 28.262Z" opacity="1" fill="#4d7e3e" data-fill-palette-color="tertiary"></path><g transform="matrix(1,0,0,1,55.76832,26.230666666666675)"><svg width="283.98335999999995" viewBox="2.4984848499298096 -38 139.64151000976562 39" height="79.3070596332863" data-palette-color="#ffffff"><path d="M18.85 1Q13.8 1 10.1-1.68 6.4-4.35 4.48-8.85 2.55-13.35 2.5-18.75L2.5-18.75Q2.45-23 4.05-27.43 5.65-31.85 9.2-34.93 12.75-38 18.35-38L18.35-38Q24-38 27.63-35.08 31.25-32.15 32.88-27.75 34.5-23.35 34.5-18.75L34.5-18.75Q34.5-13.3 32.75-8.83 31-4.35 27.48-1.68 23.95 1 18.85 1L18.85 1ZM18.85 0Q24.9 0 27.63-5.23 30.35-10.45 30.3-18.75L30.3-18.75Q30.25-23.05 28.98-27.25 27.7-31.45 25.03-34.23 22.35-37 18.35-37L18.35-37Q14.3-37 11.7-33.98 9.1-30.95 7.93-26.6 6.75-22.25 6.75-18.2L6.75-18.2Q6.75-13.1 8.08-9 9.4-4.9 12.13-2.45 14.85 0 18.85 0L18.85 0ZM77.5-35.75Q76.55-36.05 75.75-36.05L75.75-36.05Q74.8-36.05 74.27-35.52 73.75-35 73.75-34L73.75-34 73.75-3Q73.75-2 74.27-1.48 74.8-0.95 75.75-0.95L75.75-0.95Q76.55-0.95 77.5-1.25L77.5-1.25 77.5 0 66.25 0 66.25-1.25Q67.25-0.95 68-0.95L68-0.95Q68.95-0.95 69.47-1.48 70-2 70-3L70-3 70-35.05 57.7 1 56.95 1 43.55-31.85 43.6-3Q43.6-2.05 44.52-1.5 45.45-0.95 46.8-0.95L46.8-0.95Q47.8-0.95 48.8-1.25L48.8-1.25 48.8 0 37.5 0 37.5-1.25Q38.45-0.95 39.45-0.95L39.45-0.95Q40.75-0.95 41.6-1.5 42.45-2.05 42.45-3L42.45-3 42.45-34Q42.45-34.95 41.75-35.5 41.05-36.05 39.85-36.05L39.85-36.05Q39-36.05 38-35.75L38-35.75 38-37 45.75-37 58.65-5.1 69-37 77.5-37 77.5-35.75ZM107.95-2Q108.3-0.7 109.75-0.7L109.75-0.7Q110.7-0.7 112.25-1.25L112.25-1.25 112.25 0 100.2 0 100.2-1.25Q101.65-0.75 102.7-0.75L102.7-0.75Q103.9-0.75 103.9-1.6L103.9-1.6Q103.9-1.85 103.84-2L103.84-2 99.34-16.25 88.75-16.25Q86.95-10.25 85.3-4.25L85.3-4.25 84.95-3Q84.84-2.7 84.84-2.25L84.84-2.25Q84.84-0.8 86.65-0.8L86.65-0.8Q87.65-0.8 88.95-1.25L88.95-1.25 88.95 0 78.5 0 78.5-1.25Q79.7-0.8 80.8-0.8L80.8-0.8Q82.3-0.8 82.95-2L82.95-2Q83.3-2.7 83.55-3.45L83.55-3.45 94.15-38 97.05-38 107.95-2ZM93.84-33.55L89-17.15 99.05-17.15 93.84-33.55ZM142.14-0.9Q140.39 0.7 137.24 0.7L137.24 0.7Q135.24 0.7 134.27-0.43 133.29-1.55 132.97-3.23 132.64-4.9 132.44-7.85L132.44-7.85Q132.19-11.6 131.67-13.9 131.14-16.2 129.37-17.82 127.59-19.45 123.94-19.45L123.94-19.45 122.34-19.45 122.34-20.15Q127.04-20.15 129.62-20.98 132.19-21.8 133.27-23.6 134.34-25.4 134.34-28.6L134.34-28.6Q134.34-31.9 131.87-34.2 129.39-36.5 123.89-36.5L123.89-36.5Q122.39-36.5 120.79-36.1L120.79-36.1 120.74-3Q120.74-0.95 122.69-0.95L122.69-0.95Q123.44-0.95 124.39-1.25L124.39-1.25 124.39 0 113.24 0 113.24-1.25Q114.19-0.95 114.99-0.95L114.99-0.95Q115.94-0.95 116.47-1.48 116.99-2 116.99-3L116.99-3 116.99-34Q116.99-35 116.47-35.52 115.94-36.05 114.99-36.05L114.99-36.05Q114.19-36.05 113.24-35.75L113.24-35.75 113.24-37 126.09-37Q131.44-37 134.99-34.85 138.54-32.7 138.54-28.2L138.54-28.2Q138.54-26.1 137.54-24.25 136.54-22.4 134.47-21.18 132.39-19.95 129.34-19.75L129.34-19.75Q132.24-19.75 133.69-18.18 135.14-16.6 135.64-14.38 136.14-12.15 136.39-8.6L136.39-8.6Q136.64-5.05 137.12-3.23 137.59-1.4 139.04-0.85L139.04-0.85Q139.44-0.7 139.89-0.7L139.89-0.7Q140.94-0.7 142.14-1.65L142.14-1.65 142.14-0.9Z" opacity="1" transform="matrix(1,0,0,1,0,0)" fill="#ffffff" class="undefined-text-0" data-fill-palette-color="quaternary" id="text-0"></path></svg></g></svg></g></svg></g></svg></g><g transform="matrix(1,0,0,1,414.2424934099877,20.358216713342728)"><svg viewBox="0 0 150.50617336114234 91.05195953993419" height="91.05195953993419" width="150.50617336114234"><g><svg xmlns="http://www.w3.org/2000/svg" xmlns:xlink="http://www.w3.org/1999/xlink" version="1.1" viewBox="1.718998908996582 20.00261878967285 92.56200408935547 55.99738311767578" x="0" y="0" height="91.05195953993419" width="150.50617336114234" class="icon-icon-0" data-fill-palette-color="accent" id="icon-0"><path d="M28.288 74.572c-0.512 0-1.024-0.196-1.416-0.584l-24.568-24.572c-0.78-0.776-0.78-2.052 0-2.828l24.568-24.576c0.78-0.78 2.052-0.78 2.828 0 0.78 0.78 0.78 2.048 0 2.828l-23.156 23.156 23.156 23.156c0.78 0.78 0.78 2.048 0 2.828-0.388 0.396-0.9 0.592-1.412 0.592z" fill="#4d7e3e" data-fill-palette-color="accent"></path><path d="M67.716 74.572c-0.512 0-1.024-0.196-1.416-0.584-0.78-0.78-0.78-2.048 0-2.828l23.156-23.16-23.156-23.156c-0.78-0.78-0.78-2.048 0-2.828s2.048-0.78 2.828 0l24.568 24.576c0.78 0.776 0.78 2.052 0 2.828l-24.568 24.572c-0.388 0.384-0.9 0.58-1.412 0.58z" fill="#4d7e3e" data-fill-palette-color="accent"></path><path d="M38.288 76c-0.244 0-0.484-0.048-0.724-0.132-1.028-0.4-1.544-1.556-1.144-2.584l20-52c0.396-1.028 1.556-1.544 2.584-1.148 1.028 0.4 1.544 1.556 1.148 2.584l-20 52c-0.304 0.788-1.06 1.28-1.864 1.28z" fill="#4d7e3e" data-fill-palette-color="accent"></path></svg></g></svg></g></svg></g><defs></defs></svg><rect width="395.52" height="92.2835906530406" fill="none" stroke="none" visibility="hidden"></rect></g></svg></g></svg>